<svg xmlns="http://www.w3.org/2000/svg" viewBox="0 0 32 32" fill="none">
  <defs>
    <linearGradient id="o" x1="0" y1="0" x2="0" y2="1">
      <stop offset="0%" stop-color="#0d8aaf"/>
      <stop offset="100%" stop-color="#085369"/>
    </linearGradient>
  </defs>
  <!-- Background circle -->
  <circle cx="16" cy="16" r="15" fill="url(#o)"/>
  <circle cx="16" cy="16" r="14.5" stroke="#fdfaf5" stroke-width="1" fill="none" opacity="0.7"/>
  <!-- Sun -->
  <circle cx="16" cy="11" r="5" fill="#f5af69"/>
  <!-- Waves -->
  <path d="M0 19 Q6 17 12 19 Q18 21 24 19 Q28 18 32 19 L32 26 Q24 24 18 26 Q12 28 6 26 Q3 25 0 26Z" fill="#085369" opacity="0.7"/>
  <path d="M0 23 Q6 21 12 23 Q18 25 24 23 Q28 22 32 23 L32 29 Q24 27 18 29 Q12 31 6 29 Q3 28 0 29Z" fill="#339fbf" opacity="0.5"/>
  <!-- Bird -->
  <path d="M22 10 L24 8 L26 10" stroke="#fdfaf5" stroke-width="0.8" fill="none" opacity="0.5"/>
</svg>
